<svg width="62" height="38" viewBox="0 0 62 38" fill="none" xmlns="http://www.w3.org/2000/svg">
<path d="M14.6898 34H29V26.5H18.253L14.6898 19L18.253 11.5L29 11.5L29 4L18.253 4H14.6898L11.1265 11.5L7.56325 4H4L4 12.2031L7.56325 19L4 26.5V33.9997L7.56325 34L11.1265 26.5L12.9081 30.25L14.6898 34Z" fill="url(#paint0_linear_1_737)"/>
<path d="M7.56325 19L4 12.2031L4 4H7.56325L11.1265 11.5M7.56325 19L4 26.5V33.9997L7.56325 34L11.1265 26.5M7.56325 19L11.1265 26.5M14.6898 19L18.253 26.5H29V34H14.6898L12.9081 30.25L11.1265 26.5M14.6898 19L18.253 11.5L29 11.5L29 4L18.253 4H14.6898L11.1265 11.5M14.6898 19L11.1265 11.5" stroke="white"/>
<path d="M40.4074 4H33V34H40.4074V25.4482L51.164 21.8125V34H58V4H51.0556L51.164 13.375L45.5 15.25L40.4074 16.8964V4Z" fill="url(#paint1_linear_1_737)"/>
<path d="M51.164 21.8125V34H58V4H51.0556L51.164 13.375M51.164 21.8125L45.5 23.6875L40.4074 25.4482M51.164 21.8125L40.4074 25.4482M51.164 21.8125V13.375M40.4074 16.8964V4H33V34H40.4074V25.4482M40.4074 16.8964L45.5 15.25L51.164 13.375M40.4074 16.8964V25.4482" stroke="white"/>
<defs>
<linearGradient id="paint0_linear_1_737" x1="29" y1="34" x2="16.8452" y2="-0.522572" gradientUnits="userSpaceOnUse">
<stop stop-color="#667EEA"/>
<stop offset="1" stop-color="#764BA2"/>
</linearGradient>
<linearGradient id="paint1_linear_1_737" x1="58" y1="4" x2="27.4889" y2="11.46" gradientUnits="userSpaceOnUse">
<stop stop-color="#667EEA"/>
<stop offset="1" stop-color="#764BA2"/>
</linearGradient>
</defs>
</svg>
